<svg width="790" height="110" viewBox="0 0 790 110" fill="none" xmlns="http://www.w3.org/2000/svg">
<path d="M38.143 95.7443C30.5057 95.7443 23.807 94.1656 18.047 91.0083C12.287 87.851 7.82837 83.3496 4.67103 77.5043C1.55636 71.659 -0.000968695 64.8536 -0.000968695 57.0883C-0.000968695 49.1523 1.68436 42.1976 5.05503 36.2243C8.4257 30.2083 13.2044 25.579 19.391 22.3363C25.6204 19.051 32.8524 17.4083 41.087 17.4083C47.7004 17.4083 53.503 18.475 58.495 20.6083C63.487 22.699 67.3484 25.707 70.079 29.6323C72.8524 33.515 74.239 38.059 74.239 43.2643H27.455C27.7537 48.8536 29.0124 53.675 31.231 57.7283C33.4924 61.739 36.607 64.811 40.575 66.9443C44.543 69.0776 49.1937 70.1443 54.527 70.1443C59.1777 70.1443 63.2524 69.291 66.751 67.5843C70.2924 65.8776 72.959 63.4456 74.751 60.2883L76.031 60.6723C74.879 68.139 72.639 74.4963 69.311 79.7443C65.983 84.9923 61.6737 88.9816 56.383 91.7123C51.135 94.4003 45.055 95.7443 38.143 95.7443ZM40.575 40.7043C43.647 40.7043 45.8017 40.1283 47.039 38.9763C48.2764 37.8243 48.895 35.8403 48.895 33.0243C48.895 30.507 48.4684 28.2669 47.615 26.3043C46.8044 24.299 45.6524 22.7416 44.159 21.6323C42.6657 20.523 40.959 19.9683 39.039 19.9683C36.735 19.9683 34.7084 20.8216 32.959 22.5283C31.2097 24.235 29.8444 26.667 28.863 29.8243C27.8817 32.939 27.391 36.5656 27.391 40.7043H40.575ZM119.718 37.8883C119.718 29.6963 115.11 25.6003 105.894 25.6003C103.59 25.6003 101.051 25.8563 98.278 26.3683C100.283 29.0136 101.841 31.7016 102.95 34.4323C104.059 37.1203 104.614 39.6376 104.614 41.9843C104.614 44.2883 104.038 46.3363 102.886 48.1283C101.734 49.9203 100.091 51.307 97.958 52.2883C95.8674 53.2696 93.478 53.7603 90.79 53.7603C88.4434 53.7603 86.3314 53.3336 84.454 52.4803C82.5767 51.5843 81.1047 50.3683 80.038 48.8323C79.014 47.2536 78.502 45.483 78.502 43.5203C78.502 39.083 81.062 34.859 86.182 30.8483C91.302 26.795 97.766 23.5523 105.574 21.1203C113.382 18.6456 120.998 17.4083 128.422 17.4083C136.87 17.4083 143.249 19.051 147.558 22.3363C151.867 25.6216 154.022 30.4643 154.022 36.8643V78.8483H162.214L155.558 93.6963H119.718V77.6963C116.347 84.3523 112.785 89.0243 109.03 91.7123C105.318 94.4003 101.03 95.7443 96.166 95.7443C92.582 95.7443 89.446 95.0616 86.758 93.6963C84.1127 92.3736 82.0647 90.4536 80.614 87.9363C79.206 85.419 78.502 82.475 78.502 79.1043C78.502 75.2216 79.5047 71.787 81.51 68.8003C83.5154 65.8136 86.758 63.019 91.238 60.4163C95.718 57.8136 101.798 55.1683 109.478 52.4803L119.718 48.8963V37.8883ZM109.99 66.3043C109.99 69.8456 110.459 72.491 111.398 74.2403C112.337 75.947 113.83 76.8003 115.878 76.8003C117.115 76.8003 118.395 76.5016 119.718 75.9043V51.5203L118.566 51.9683C115.366 53.291 113.126 55.019 111.846 57.1523C110.609 59.2856 109.99 62.3363 109.99 66.3043ZM161.475 92.1603C163.182 91.819 164.398 91.4563 165.123 91.0723C165.891 90.6883 166.403 90.1763 166.659 89.5363C166.958 88.8536 167.107 87.851 167.107 86.5283V36.3523C167.107 34.859 167.022 33.7283 166.851 32.9603C166.68 32.1923 166.36 31.5096 165.891 30.9123C165.464 30.315 164.718 29.5256 163.651 28.5443L161.475 26.6243V25.6003C174.787 23.2963 187.843 20.7363 200.643 17.9203H201.667V36.9923C204.014 30.379 206.659 25.5576 209.603 22.5283C212.547 19.4563 216.046 17.9203 220.099 17.9203C223.726 17.9203 226.499 19.0296 228.419 21.2483C230.382 23.467 231.363 26.6243 231.363 30.7203C231.363 34.7736 230.424 37.931 228.547 40.1923C226.712 42.411 224.067 43.5203 220.611 43.5203C217.795 43.5203 215.043 42.731 212.355 41.1523C209.71 39.5736 207.278 37.3123 205.059 34.3683C203.95 36.5443 202.819 39.1256 201.667 42.1123V86.5283C201.667 87.8936 201.838 88.8963 202.179 89.5363C202.563 90.1763 203.331 90.6883 204.483 91.0723C205.678 91.4563 207.64 91.819 210.371 92.1603V93.6963H161.475V92.1603ZM262.939 95.7443C255.003 95.7443 248.88 93.675 244.571 89.5363C240.262 85.355 238.107 79.403 238.107 71.6803V37.6323C238.107 36.139 238.022 35.0083 237.851 34.2403C237.68 33.4723 237.36 32.7896 236.891 32.1923C236.464 31.595 235.718 30.8056 234.651 29.8243L232.475 27.9043V26.8803C245.787 20.7363 258.843 14.3363 271.643 7.68028H272.667V19.4563H295.707L289.051 34.3043H272.667V67.5843C272.667 73.7283 275.739 76.8003 281.883 76.8003C286.192 76.8003 290.63 75.0936 295.195 71.6803L296.219 72.4483C291.995 80.555 287.216 86.4643 281.883 90.1763C276.592 93.8883 270.278 95.7443 262.939 95.7443ZM294.719 92.1603C296.426 91.819 297.642 91.4563 298.367 91.0723C299.135 90.6883 299.647 90.1763 299.903 89.5363C300.202 88.8536 300.351 87.851 300.351 86.5283V17.9203C300.351 16.427 300.266 15.2963 300.095 14.5283C299.924 13.7603 299.604 13.0776 299.135 12.4803C298.708 11.8829 297.962 11.0936 296.895 10.1123L294.719 8.19228V7.16828C309.866 4.69362 322.922 2.30428 333.887 0.000282288H334.911V36.9283C338.666 30.0163 342.655 25.0456 346.879 22.0163C351.103 18.9443 356.074 17.4083 361.791 17.4083C368.618 17.4083 373.908 19.5203 377.663 23.7443C381.418 27.9256 383.295 33.835 383.295 41.4723V86.5283C383.295 87.851 383.423 88.8536 383.679 89.5363C383.978 90.1763 384.49 90.6883 385.215 91.0723C385.983 91.4563 387.22 91.819 388.927 92.1603V93.6963H342.591V92.1603C344.468 91.819 345.812 91.4563 346.623 91.0723C347.476 90.6883 348.031 90.1763 348.287 89.5363C348.586 88.8963 348.735 87.8936 348.735 86.5283V45.5683C348.735 42.8803 348.116 40.8536 346.879 39.4883C345.684 38.0803 343.914 37.3763 341.567 37.3763C339.476 37.3763 337.258 37.867 334.911 38.8483V86.5283C334.911 87.8936 335.039 88.8963 335.295 89.5363C335.594 90.1763 336.148 90.6883 336.959 91.0723C337.812 91.4563 339.178 91.819 341.055 92.1603V93.6963H294.719V92.1603ZM425.812 95.7443C421.161 95.7443 416.575 95.1896 412.052 94.0803C407.529 93.0136 403.369 91.4776 399.572 89.4723L395.476 95.2323H394.452L392.276 65.6643L393.684 65.4083C398.847 74.539 404.095 81.451 409.428 86.1443C414.804 90.8376 420.095 93.1843 425.3 93.1843C428.585 93.1843 431.231 92.3736 433.236 90.7523C435.284 89.0883 436.308 86.8696 436.308 84.0963C436.308 81.2376 435.177 78.8696 432.916 76.9923C430.697 75.115 427.22 73.6003 422.484 72.4483L416.34 70.9123C399.956 66.8163 391.764 58.155 391.764 44.9283C391.764 39.3816 393.065 34.539 395.668 30.4003C398.271 26.2616 401.983 23.0616 406.804 20.8003C411.625 18.539 417.279 17.4083 423.764 17.4083C428.159 17.4083 432.511 17.9416 436.82 19.0083C441.172 20.0323 445.14 21.5043 448.724 23.4243L452.692 17.9203H453.716L455.764 45.4403L454.356 45.6963C449.364 37.419 444.265 31.0616 439.06 26.6243C433.855 22.187 428.927 19.9683 424.276 19.9683C421.417 19.9683 419.113 20.6936 417.364 22.1443C415.657 23.595 414.804 25.5576 414.804 28.0323C414.804 30.7203 415.913 32.9603 418.132 34.7523C420.393 36.5443 423.892 38.0163 428.628 39.1683L434.772 40.7043C451.156 44.8003 459.348 53.6323 459.348 67.2003C459.348 72.9603 457.983 77.995 455.252 82.3043C452.521 86.6136 448.617 89.9416 443.54 92.2883C438.505 94.5923 432.596 95.7443 425.812 95.7443ZM481.238 109.824C478.294 109.824 475.734 109.291 473.558 108.224C471.425 107.158 469.782 105.707 468.63 103.872C467.478 102.08 466.902 100.096 466.902 97.9203C466.902 95.7016 467.414 93.739 468.438 92.0323C469.505 90.283 470.934 88.939 472.726 88.0003C474.561 87.019 476.63 86.5283 478.934 86.5283C482.817 86.5283 486.123 87.723 488.854 90.1123C491.585 92.5016 493.846 96.235 495.638 101.312C496.875 99.8616 497.985 98.155 498.966 96.1923L463.062 26.6243C462.123 24.747 461.313 23.467 460.63 22.7843C459.99 22.1016 459.009 21.5043 457.686 20.9923V19.4563H507.222V20.9923C504.662 21.4616 502.891 21.931 501.91 22.4003C500.929 22.827 500.438 23.4456 500.438 24.2563C500.438 24.8963 500.779 25.8563 501.462 27.1363L516.246 54.4003L522.07 40.1923C523.947 35.6696 524.886 32.107 524.886 29.5043C524.886 27.0296 524.054 25.131 522.39 23.8083C520.726 22.4856 518.059 21.547 514.39 20.9923V19.4563H536.534V20.9923C535.041 21.5896 533.419 23.211 531.67 25.8563C529.963 28.5016 527.702 33.2803 524.886 40.1923L502.998 93.6963C500.694 99.3283 497.793 103.424 494.294 105.984C490.838 108.544 486.486 109.824 481.238 109.824ZM534.725 92.1603C536.432 91.819 537.648 91.4563 538.373 91.0723C539.141 90.6883 539.653 90.1763 539.909 89.5363C540.208 88.8536 540.357 87.851 540.357 86.5283V36.3523C540.357 34.859 540.272 33.7283 540.101 32.9603C539.93 32.1923 539.61 31.5096 539.141 30.9123C538.714 30.315 537.968 29.5256 536.901 28.5443L534.725 26.6243V25.6003C548.037 23.2963 561.093 20.7363 573.893 17.9203H574.917V36.9923C577.264 30.379 579.909 25.5576 582.853 22.5283C585.797 19.4563 589.296 17.9203 593.349 17.9203C596.976 17.9203 599.749 19.0296 601.669 21.2483C603.632 23.467 604.613 26.6243 604.613 30.7203C604.613 34.7736 603.674 37.931 601.797 40.1923C599.962 42.411 597.317 43.5203 593.861 43.5203C591.045 43.5203 588.293 42.731 585.605 41.1523C582.96 39.5736 580.528 37.3123 578.309 34.3683C577.2 36.5443 576.069 39.1256 574.917 42.1123V86.5283C574.917 87.8936 575.088 88.8963 575.429 89.5363C575.813 90.1763 576.581 90.6883 577.733 91.0723C578.928 91.4563 580.89 91.819 583.621 92.1603V93.6963H534.725V92.1603ZM631.837 95.7443C625.053 95.7443 619.805 93.6536 616.093 89.4723C612.424 85.2483 610.589 79.3176 610.589 71.6803V36.3523C610.589 34.859 610.504 33.7283 610.333 32.9603C610.162 32.1923 609.842 31.5096 609.373 30.9123C608.946 30.315 608.2 29.5256 607.133 28.5443L604.957 26.6243V25.6003C618.269 23.2963 631.325 20.7363 644.125 17.9203H645.149V67.5843C645.149 73.0456 647.453 75.7763 652.061 75.7763C653.981 75.7763 656.114 75.2856 658.461 74.3043V36.3523C658.461 34.859 658.376 33.7283 658.205 32.9603C658.034 32.1923 657.714 31.5096 657.245 30.9123C656.818 30.315 656.072 29.5256 655.005 28.5443L652.829 26.6243V25.6003C666.141 23.2963 679.197 20.7363 691.997 17.9203H693.021V76.8003C693.021 78.2936 693.106 79.4243 693.277 80.1923C693.448 80.9603 693.746 81.643 694.173 82.2403C694.642 82.8376 695.41 83.627 696.477 84.6083L698.653 86.5283V87.5523C683.506 90.027 670.45 92.4163 659.485 94.7203H658.461V76.2243C654.706 83.1363 650.738 88.1283 646.557 91.2003C642.376 94.2296 637.469 95.7443 631.837 95.7443ZM753.36 95.7443C748.069 95.7443 743.376 94.9336 739.28 93.3123V100.608C739.28 101.974 739.451 102.976 739.792 103.616C740.176 104.256 740.944 104.768 742.096 105.152C743.291 105.536 745.253 105.899 747.984 106.24V107.776H699.088V106.24C700.795 105.899 702.011 105.536 702.736 105.152C703.504 104.768 704.016 104.235 704.272 103.552C704.571 102.912 704.72 101.931 704.72 100.608V36.3523C704.72 34.859 704.635 33.7283 704.464 32.9603C704.293 32.1923 703.973 31.5096 703.504 30.9123C703.077 30.315 702.331 29.5256 701.264 28.5443L699.088 26.6243V25.6003C712.4 23.2963 725.456 20.7363 738.256 17.9203H739.28V36.9923C742.779 30.0803 746.469 25.0883 750.352 22.0163C754.235 18.9443 758.736 17.4083 763.856 17.4083C769.104 17.4083 773.669 18.9443 777.552 22.0163C781.435 25.0456 784.421 29.3763 786.512 35.0083C788.645 40.5976 789.712 47.1896 789.712 54.7843C789.712 63.4456 788.304 70.8483 785.488 76.9923C782.672 83.0936 778.533 87.7443 773.072 90.9443C767.653 94.1443 761.083 95.7443 753.36 95.7443ZM739.28 62.9763C739.28 73.0883 740.005 80.619 741.456 85.5683C742.907 90.475 745.168 92.9283 748.24 92.9283C749.989 92.9283 751.397 92.1603 752.464 90.6243C753.573 89.0883 754.384 86.6563 754.896 83.3283C755.408 80.0003 755.664 75.6056 755.664 70.1443C755.664 59.307 754.725 51.1363 752.848 45.6323C751.013 40.1283 748.283 37.3763 744.656 37.3763C743.077 37.3763 741.285 37.8456 739.28 38.7843V62.9763Z" fill="white"/>
</svg>
